<?xml version="1.0" encoding="utf-8"?>
<!-- Generator: Adobe Illustrator 22.0.1, SVG Export Plug-In . SVG Version: 6.00 Build 0)  -->
<svg version="1.1" id="Layer_1" xmlns="http://www.w3.org/2000/svg" xmlns:xlink="http://www.w3.org/1999/xlink" x="0px" y="0px"
	 width="500px" height="500px" viewBox="0 0 500 500" style="enable-background:new 0 0 500 500;" xml:space="preserve">
<style type="text/css">
	.st0{fill:#314555;}
	.st1{fill:#486977;}
</style>
<g>
	<g>
		<path class="st0" d="M145.2,13.3c-0.3,0-0.7-0.1-1-0.2c-0.3-0.1-0.6-0.3-0.8-0.5c-0.2-0.2-0.4-0.5-0.5-0.7
			c-0.1-0.3-0.2-0.6-0.2-0.9c0-0.3,0.1-0.6,0.2-0.9c0.1-0.3,0.3-0.5,0.5-0.7c0.2-0.2,0.5-0.4,0.8-0.5c0.3-0.1,0.6-0.2,1-0.2
			c0.3,0,0.7,0.1,1,0.2c0.3,0.1,0.6,0.3,0.8,0.5c0.2,0.2,0.4,0.4,0.5,0.7c0.1,0.3,0.2,0.6,0.2,0.9c0,0.3-0.1,0.6-0.2,0.9
			c-0.1,0.3-0.3,0.5-0.5,0.7c-0.2,0.2-0.5,0.4-0.8,0.5C145.9,13.3,145.5,13.3,145.2,13.3 M145.2,13c0.3,0,0.6,0,0.8-0.1
			c0.3-0.1,0.5-0.2,0.7-0.4c0.2-0.2,0.3-0.4,0.4-0.6c0.1-0.2,0.2-0.5,0.2-0.8c0-0.3-0.1-0.5-0.2-0.8c-0.1-0.2-0.2-0.5-0.4-0.6
			c-0.2-0.2-0.4-0.3-0.7-0.4c-0.3-0.1-0.5-0.2-0.8-0.2c-0.3,0-0.6,0.1-0.8,0.2c-0.3,0.1-0.5,0.2-0.6,0.4c-0.2,0.2-0.3,0.4-0.4,0.6
			c-0.1,0.2-0.2,0.5-0.2,0.8c0,0.3,0.1,0.5,0.2,0.8c0.1,0.2,0.2,0.5,0.4,0.6c0.2,0.2,0.4,0.3,0.6,0.4C144.6,13,144.9,13,145.2,13
			 M144.2,9.6h1.3c0.1,0,0.3,0,0.4,0.1c0.1,0.1,0.2,0.1,0.3,0.2c0.1,0.1,0.1,0.2,0.2,0.3c0,0.1,0.1,0.2,0.1,0.3c0,0.2,0,0.3-0.1,0.5
			c-0.1,0.2-0.2,0.3-0.4,0.3l0.7,1.1h-0.7l-0.6-1h-0.4v1h-0.6L144.2,9.6L144.2,9.6z M145.4,10.9c0.1,0,0.2,0,0.3-0.1
			c0.1-0.1,0.1-0.2,0.1-0.3c0-0.1,0-0.2-0.1-0.3c-0.1-0.1-0.2-0.1-0.3-0.1h-0.6v0.8H145.4z"/>
	</g>
	<path class="st0" d="M35.2,16.2c0.7-0.9,1.8-1.4,3.4-1.4c1.7,0,4.4,0,8.1,0.1l0.9-5.6c-2.4-0.7-5.2-1.1-8.4-1.1
		c-2.2,0-4.1,0.2-5.6,0.5c-1.5,0.4-2.8,1-3.9,2c-1.2,1-2.1,2.3-2.7,3.9c-0.7,1.6-1.2,3.8-1.5,6.4c-1.3,8.9,0.9,13.3,6.6,13.3
		c2.7,0,5.1-1.1,7.3-3.4l0.3,2.9h5.8l2-14.4h-7.5l-1,7.1c-1,0.8-2.1,1.1-3.3,1.1c-1.2,0-2-0.4-2.2-1.2c-0.3-0.8-0.2-2.4,0.2-4.9
		C34,18.9,34.6,17.1,35.2,16.2"/>
	<polygon class="st0" points="83.9,8.7 80.4,33.8 88.2,33.8 91.8,8.7 	"/>
	<path class="st0" d="M18,8.7l-1.4,10.1L16,22.3l-1.2-2.5c0,0,0-0.1-0.1-0.1l-2.4-5.2v0l-1.6-3.4c-0.2-0.5-0.4-0.8-0.5-1
		C10.2,9.9,10,9.7,9.8,9.4c0,0,0,0,0,0c0,0,0,0,0,0c0,0,0,0,0,0C9.6,9.1,9.4,8.9,9.1,8.8c0,0,0,0,0,0C8.8,8.7,8.5,8.7,8.2,8.7H5.9
		c-0.1,0-0.3,0-0.4,0c-1,0.1-1.8,0.8-2.1,1.7c-0.1,0.3-0.1,0.6-0.2,0.9L0,33.8h6.8l1.4-10.1l0.5-3.6l1.2,2.5c0,0,0,0.1,0.1,0.1
		l2.4,5.3l0,0l1.6,3.4c0.2,0.5,0.4,0.8,0.5,1c0.1,0.2,0.3,0.4,0.5,0.7c0,0,0,0,0,0c0,0,0,0,0,0c0,0,0,0,0,0c0.2,0.2,0.4,0.4,0.6,0.5
		c0,0,0,0,0,0c0.3,0.1,0.6,0.1,0.9,0.1h2.3c0.1,0,0.3,0,0.4,0c1-0.1,1.8-0.8,2.1-1.7c0.1-0.3,0.1-0.6,0.2-0.9l3.1-22.5L18,8.7
		L18,8.7z"/>
	<path class="st0" d="M109.1,8.7l-1.4,10.1l-0.5,3.6l-1.2-2.5c0,0,0-0.1-0.1-0.1l-2.4-5.2v0l-1.6-3.4c-0.2-0.5-0.4-0.8-0.5-1
		c-0.1-0.2-0.3-0.4-0.5-0.7c0,0,0,0,0,0c0,0,0,0,0,0c0,0,0,0,0,0c-0.2-0.2-0.4-0.4-0.6-0.5c0,0,0,0,0,0c-0.3-0.1-0.6-0.1-0.9-0.1H97
		c-0.1,0-0.3,0-0.4,0c-1,0.1-1.8,0.8-2.1,1.7c-0.1,0.3-0.2,0.6-0.2,0.9l-3.1,22.5H98l1.4-10.1l0.5-3.6l1.2,2.5c0,0,0,0.1,0.1,0.1
		l2.4,5.3l0,0l1.6,3.4c0.2,0.5,0.4,0.8,0.5,1c0.1,0.2,0.3,0.4,0.5,0.7c0,0,0,0,0,0c0,0,0,0,0,0c0,0,0,0,0,0c0.2,0.2,0.4,0.4,0.6,0.5
		c0,0,0,0,0,0c0.3,0.1,0.6,0.1,0.9,0.1h2.3c0.1,0,0.3,0,0.4,0c1-0.1,1.8-0.8,2.1-1.7c0.1-0.3,0.1-0.6,0.2-0.9l3.1-22.5L109.1,8.7
		L109.1,8.7z"/>
	<path class="st0" d="M78,8.7H59.7l-0.5,3.4L59,13.7l-0.1,0.5l-0.2,1.3h11L64,21.2l0,0c0,0-5.7,5.7-6.3,6.3
		c-0.6,0.6-0.8,1.3-0.9,2.2L56.6,31c0,0.1,0,0.1,0,0.2c0,1.4,1.2,2.6,2.6,2.6h18.3l0.5-3.4l0.2-1.6l0.1-0.5l0.2-1.3h-11l5.7-5.7h0
		c0,0,5.7-5.7,6.3-6.3c0.6-0.6,0.8-1.3,0.9-2.2l0.2-1.3c0-0.1,0-0.1,0-0.2C80.6,9.8,79.5,8.7,78,8.7z"/>
	<path class="st0" d="M132.7,22.4c-0.4-0.5-0.8-0.8-1.1-1l0-0.1c1.1-0.4,2-1.1,2.6-2.1l7-10.5h-8.7l-6.1,9.5h-1l0.7-4.7l0.7-4.8
		h-7.9l-3.5,25.1h7.9l0.9-6.5l0.6-4h0.8l3.9,10.5h8.5l-4.4-9.8C133.4,23.4,133.1,22.9,132.7,22.4"/>
</g>
<g>
	<path class="st0" d="M175,0c-11.6,0-21,9.4-21,21s9.4,21,21,21c11.6,0,21-9.4,21-21C196,9.4,186.6,0,175,0z M175,31.1
		c-5.4,0-9.7-4.4-9.7-9.7s4.4-9.7,9.7-9.7s9.7,4.4,9.7,9.7C184.7,26.7,180.3,31.1,175,31.1z"/>
	<path class="st1" d="M175,0c-11.6,0-21,9.4-21,21c0-8.5,6.9-15.4,15.4-15.4c8.5,0,15.4,6.9,15.4,15.4v0c0,5.4-4.4,9.8-9.8,9.8
		c-5.2,0-9.5-4.1-9.8-9.3c0.3,8.3,7.1,14.9,15.4,14.9c8.5,0,15.4-6.9,15.4-15.4c0,0,0,0,0,0v0C196,9.4,186.6,0,175,0"/>
</g>
</svg>
