<?xml version="1.0" encoding="utf-8"?>
<!-- Generator: Adobe Illustrator 23.0.6, SVG Export Plug-In . SVG Version: 6.00 Build 0)  -->
<svg version="1.1" id="Layer_1" xmlns="http://www.w3.org/2000/svg" xmlns:xlink="http://www.w3.org/1999/xlink" x="0px" y="0px"
	 viewBox="0 0 186 40" style="enable-background:new 0 0 186 40;" xml:space="preserve">
<style type="text/css">
	.st0{fill:#FFFFFF;}
	.st1{fill:none;stroke:#FFFFFF;stroke-miterlimit:10;}
</style>
<g>
	<g>
		<path class="st0" d="M138.3,12.7c-0.3,0-0.7-0.1-1-0.2s-0.6-0.3-0.8-0.5s-0.4-0.5-0.5-0.7c-0.1-0.3-0.2-0.6-0.2-0.9
			c0-0.3,0.1-0.6,0.2-0.9c0.1-0.3,0.3-0.5,0.5-0.7s0.5-0.4,0.8-0.5s0.6-0.2,1-0.2c0.3,0,0.7,0.1,1,0.2c0.3,0.1,0.6,0.3,0.8,0.5
			s0.4,0.4,0.5,0.7s0.2,0.6,0.2,0.9s-0.1,0.6-0.2,0.9c-0.1,0.3-0.3,0.5-0.5,0.7s-0.5,0.4-0.8,0.5C139,12.7,138.6,12.7,138.3,12.7
			 M138.3,12.4c0.3,0,0.6,0,0.8-0.1c0.3-0.1,0.5-0.2,0.7-0.4s0.3-0.4,0.4-0.6c0.1-0.2,0.2-0.5,0.2-0.8s-0.1-0.5-0.2-0.8
			c-0.1-0.2-0.2-0.5-0.4-0.6C139.5,9,139.3,9,139,8.9s-0.5-0.2-0.8-0.2s-0.6,0.1-0.8,0.2C137.2,9,137,9,137,9.2
			c-0.2,0.2-0.3,0.4-0.4,0.6c-0.1,0.2-0.2,0.5-0.2,0.8s0.1,0.5,0.2,0.8c0.1,0.2,0.2,0.5,0.4,0.6c0.2,0.2,0.4,0.3,0.6,0.4
			C137.7,12.4,138,12.4,138.3,12.4 M137.3,9.1h1.2c0.1,0,0.3,0,0.4,0.1c0.1,0.1,0.2,0.1,0.3,0.2c0.1,0.1,0.1,0.2,0.2,0.3
			c0,0.1,0.1,0.2,0.1,0.3c0,0.2,0,0.3-0.1,0.5s-0.2,0.3-0.4,0.3l0.7,1H139l-0.6-1H138v1h-0.6L137.3,9.1L137.3,9.1z M138.5,10.4
			c0.1,0,0.2,0,0.3-0.1s0.1-0.2,0.1-0.3s0-0.2-0.1-0.3s-0.2-0.1-0.3-0.1h-0.6v0.8C137.9,10.4,138.5,10.4,138.5,10.4z"/>
	</g>
	<path class="st0" d="M33.5,15.4c0.7-0.9,1.7-1.3,3.2-1.3c1.6,0,4.2,0,7.7,0.1l0.9-5.3c-2.3-0.7-5-1-8-1c-2.1,0-3.9,0.2-5.3,0.5
		c-1.4,0.4-2.7,1-3.7,1.9c-1.1,1-2,2.2-2.6,3.7c-0.7,1.5-1.1,3.6-1.4,6.1c-1.2,8.5,0.9,12.7,6.3,12.7c2.6,0,4.9-1,7-3.2l0.3,2.8h5.5
		l1.9-13.7h-7.1l-1,6.8c-1,0.8-2,1-3.1,1s-1.9-0.4-2.1-1.1c-0.3-0.8-0.2-2.3,0.2-4.7C32.4,18,33,16.3,33.5,15.4"/>
	<polygon class="st0" points="79.9,8.3 76.6,32.2 84,32.2 87.4,8.3 	"/>
	<path class="st0" d="M17.1,8.3l-1.3,9.6l-0.6,3.3l-1.1-2.4c0,0,0-0.1-0.1-0.1l-2.3-5l0,0l-1.5-3.2C10,10,9.8,9.7,9.7,9.5
		c0-0.2-0.2-0.4-0.4-0.7l0,0l0,0l0,0C9.1,8.7,9,8.5,8.7,8.4l0,0C8.4,8.3,8.1,8.3,7.8,8.3H5.6c-0.1,0-0.3,0-0.4,0
		c-1,0.1-1.7,0.8-2,1.6c-0.1,0.3-0.1,0.6-0.2,0.9L0,32.2h6.5l1.3-9.6l0.5-3.4l1.1,2.4c0,0,0,0.1,0.1,0.1l2.3,5l0,0l1.5,3.2
		c0.2,0.5,0.4,0.8,0.5,1s0.3,0.4,0.5,0.7l0,0l0,0l0,0c0.2,0.2,0.4,0.4,0.6,0.5l0,0c0.3,0.1,0.6,0.1,0.9,0.1H18c0.1,0,0.3,0,0.4,0
		c1-0.1,1.7-0.8,2-1.6c0.1-0.3,0.1-0.6,0.2-0.9l3-21.4L17.1,8.3L17.1,8.3z"/>
	<path class="st0" d="M103.9,8.3l-1.3,9.6l-0.5,3.4L101,19c0,0,0-0.1-0.1-0.1l-2.3-5l0,0L97,10.7c-0.2-0.5-0.4-0.8-0.5-1
		S96.2,9.3,96,9l0,0l0,0l0,0c-0.2-0.2-0.4-0.4-0.6-0.5l0,0c-0.3-0.1-0.6-0.1-0.9-0.1h-2.3c-0.1,0-0.3,0-0.4,0c-1,0.1-1.7,0.8-2,1.6
		c-0.1,0.3-0.2,0.6-0.2,0.9l-3,21.4h6.5l1.3-9.6l0.5-3.4l1.1,2.4c0,0,0,0.1,0.1,0.1l2.3,5l0,0l1.5,3.2c0.2,0.5,0.4,0.8,0.5,1
		s0.3,0.4,0.5,0.7l0,0l0,0l0,0c0.2,0.2,0.4,0.4,0.6,0.5l0,0c0.3,0.1,0.6,0.1,0.9,0.1h2.2c0.1,0,0.3,0,0.4,0c1-0.1,1.7-0.8,2-1.6
		c0.1-0.3,0.1-0.6,0.2-0.9l3-21.4L103.9,8.3L103.9,8.3z"/>
	<path class="st0" d="M74.3,8.3H56.9l-0.5,3.2L56.2,13l-0.1,0.5l-0.2,1.2h10.5L61,20.2l0,0c0,0-5.4,5.4-6,6s-0.8,1.2-0.9,2.1
		l-0.2,1.2c0,0.1,0,0.1,0,0.2c0,1.3,1.1,2.5,2.5,2.5h17.4l0.5-3.2l0.2-1.5l0.1-0.5l0.2-1.2H64.3l5.4-5.4l0,0c0,0,5.4-5.4,6-6
		s0.8-1.2,0.9-2.1l0.2-1.2c0-0.1,0-0.1,0-0.2C76.8,9.3,75.7,8.3,74.3,8.3z"/>
	<path class="st0" d="M126.4,21.3c-0.4-0.5-0.8-0.8-1-1v-0.1c1-0.4,1.9-1,2.5-2l6.7-10h-8.3l-5.8,9h-1l0.7-4.5l0.7-4.6h-7.5
		L110.1,32h7.5l0.9-6.2l0.6-3.8h0.8l3.7,10h8.1l-4.2-9.3C127,22.3,126.8,21.8,126.4,21.3"/>
</g>
<g>
	<path class="st1" d="M146.5,20L146.5,20c0,10.8,8.7,19.5,19.5,19.5c10.8,0,19.5-8.7,19.5-19.5c0,7.9-6.4,14.3-14.3,14.3
		c-7.9,0-14.3-6.4-14.3-14.3c0-5,4.1-9.1,9.1-9.1c4.9,0,8.8,3.8,9.1,8.6c-0.2-7.7-6.5-13.8-14.3-13.8C152.9,5.7,146.5,12.1,146.5,20
		"/>
	<path class="st1" d="M166,0.5c-10.8,0-19.5,8.7-19.5,19.5c0-7.9,6.4-14.3,14.3-14.3c7.9,0,14.3,6.4,14.3,14.3v0
		c0,5-4.1,9.1-9.1,9.1c-4.9,0-8.8-3.8-9.1-8.6c0.2,7.7,6.5,13.8,14.3,13.8c7.9,0,14.3-6.4,14.3-14.3c0,0,0,0,0,0v0
		C185.5,9.2,176.8,0.5,166,0.5"/>
</g>
</svg>
